<?xml version="1.0" encoding="utf-8"?>
<!-- Generator: Adobe Illustrator 18.1.1, SVG Export Plug-In . SVG Version: 6.00 Build 0)  -->
<svg version="1.1" id="Layer_1" xmlns="http://www.w3.org/2000/svg" xmlns:xlink="http://www.w3.org/1999/xlink" x="0px" y="0px"
	 width="320px" height="320px" viewBox="-1926 1515.9 320 320" enable-background="new -1926 1515.9 320 320" xml:space="preserve">
<g>
	<rect x="-1926" y="1515.9" fill="none" width="320" height="320"/>
	<g>
		<path fill="#0F4BA4" d="M-1916,1614.5c0-14,10.9-25.3,24.4-25.3h251.2c13.5,0,24.4,11.3,24.4,25.3v116c0,14-10.9,25.3-24.4,25.3
			h-251.2c-13.5,0-24.4-11.3-24.4-25.3V1614.5L-1916,1614.5z"/>
		<g>
			<path fill="#FFFFFF" d="M-1676.1,1622.8c3.7,0,2.1,0,4.8,0c3.1,0.1,6.4,0.5,9.8,1.1c3.4,0.6,6.7,1.5,9.9,2.7s6.3,2.8,9.3,4.6
				c2.9,1.9,5.6,4.2,7.9,6.9l-19.3,12.4c-2.3-2.6-5.2-4.6-8.6-6.1s-7.4-2.3-12-2.5s-8.9,0.4-12.9,1.7c-4,1.4-7.4,3.4-10.4,6
				c-3,2.6-5.3,5.8-7.1,9.4c-1.7,3.7-2.7,7.7-2.9,12.1c-0.2,4.5,0.5,8.6,2,12.4c1.4,3.8,3.6,7.1,6.3,9.9c2.7,2.8,5.9,5.1,9.7,6.8
				s7.8,2.6,12.2,2.8c5,0.2,9.4-0.5,13.4-2.2s7.2-4,9.8-7.1l19.8,13.8c-4.9,5.5-11,9.4-18.3,11.8c-7.3,2.4-14.8,3.5-22.4,3.1
				c-8.7-0.3-16.6-1.8-23.8-4.4c-2.2-0.8-4.3-1.7-6.5-2.7c1.7-1.4,3.3-3,4.9-4.6l3.6-3.9l-4.4-3.1l-19.8-13.8l-3.5-2.4l-2.8,3.2
				c-0.4,0.5-0.9,1-1.4,1.4l-0.5-1.1c-2.7-6.3-3.9-13.3-3.7-20.9c0.2-6.4,1.7-12.6,4.3-18.5c1.4,1.3,0.8,0.7,1.9,1.8l2.7,3l3.4-2.2
				l19.3-12.4l4.5-2.9l-3.5-4.1c-1.8-2.1-3.8-4-5.9-5.6c3.5-1.8,7.2-3.1,11-4.2c5.3-1.4,10.7-2.3,16.1-2.5
				C-1678.2,1622.9-1677.2,1622.9-1676.1,1622.8z"/>
			<path fill="#FFFFFF" d="M-1745.7,1622.2c3.7,0,2.1,0,4.8,0c3.1,0.1,6.4,0.5,9.8,1.1c3.4,0.6,6.7,1.5,9.9,2.7
				c3.2,1.2,6.3,2.8,9.3,4.6c2.9,1.9,5.6,4.2,7.9,6.9l-19.3,12.4c-2.3-2.6-5.2-4.6-8.6-6.1c-3.5-1.5-7.4-2.3-12-2.5
				c-4.6-0.2-8.9,0.4-12.9,1.7c-4,1.4-7.4,3.4-10.4,6c-3,2.6-5.3,5.8-7.1,9.4c-1.7,3.7-2.7,7.7-2.9,12.1c-0.2,4.5,0.5,8.6,2,12.4
				c1.4,3.8,3.6,7.1,6.3,9.9s5.9,5.1,9.7,6.8c3.8,1.7,7.8,2.6,12.2,2.8c5,0.2,9.4-0.5,13.4-2.2s7.2-4,9.8-7.1l19.8,13.8
				c-4.9,5.5-11,9.4-18.3,11.8c-7.3,2.4-14.7,3.5-22.4,3.1c-8.7-0.3-16.6-1.8-23.8-4.4s-13.4-6.2-18.5-10.7
				c-1.5-1.3-2.8-2.7-4.2-4.2v-42.9h-3.2l0,0h-6.7c0.8-3.7,2.2-7.2,3.9-10.5c3.2-6,7.6-11.2,13.1-15.3c5.5-4.1,11.9-7.2,19.3-9.2
				c5.3-1.4,10.7-2.3,16.1-2.5C-1747.8,1622.2-1746.7,1622.2-1745.7,1622.2z"/>
			<path fill="#FFFFFF" d="M-1840.9,1622.8c0.4,0,0.8,0,1.2,0c22.5,0,45.1,0,67.6,0c-5.4,1.9-10.5,4.8-15.1,8.1
				c-4.1,3.1-8,6.9-10.9,11.2h-40.1c0,0-10-0.1-17.5,2.5c-4,1.4-7.4,3.1-11,6.3c-4.2,3.4-6.6,9.3-6.6,9.3c-1.6,3.8-2.4,7.8-2.4,12.2
				c0,4.5,0.8,8.6,2.4,12.3s3.9,7,7,9.7c3.1,2.7,6.6,4.9,10.9,6.4c4.2,1.5,8.9,2.3,14.2,2.3c5.3,0,9.9-0.5,13.8-1.5
				c3.1-0.8,6.3-1.8,9.2-3.1V1683h-19.9v-17.3h41.6v47.5c-7.2,3.2-13.1,5.7-20.9,7.2c-7.8,1.4-15.8,2.1-24,2.1
				c-8.7,0-16.7-1.2-24-3.5s-13.6-5.6-18.9-10c-5.3-4.3-9.4-9.6-12.4-15.8c-3-6.2-4.5-13.1-4.5-20.6c0-7.6,1.5-14.5,4.5-20.6
				c3-6.2,7.1-11.5,12.4-15.8c4.9-4.5,11.1-8,18.4-10.4c1.1-0.4,1.3-0.5,2.7-0.8C-1856.4,1623.2-1847.9,1622.8-1840.9,1622.8z"/>
		</g>
	</g>
</g>
</svg>
