<?xml version="1.0" encoding="utf-8"?>
<!-- Generator: Adobe Illustrator 18.1.1, SVG Export Plug-In . SVG Version: 6.00 Build 0)  -->
<svg version="1.1" id="Layer_1" xmlns="http://www.w3.org/2000/svg" xmlns:xlink="http://www.w3.org/1999/xlink" x="0px" y="0px"
	 width="340px" height="320px" viewBox="-2735 2316.9 340 320" enable-background="new -2735 2316.9 340 320" xml:space="preserve">
<g>
	<rect x="-2735" y="2316.9" fill="none" width="340" height="320"/>
	<g>
		<path fill="#0F4BA4" d="M-2735,2407.8c0-15.9,12.4-28.7,27.7-28.7h284.7c15.3,0,27.7,12.8,27.7,28.7v131.5
			c0,15.9-12.4,28.7-27.7,28.7h-284.7c-15.3,0-27.7-12.8-27.7-28.7V2407.8L-2735,2407.8z"/>
		<g>
			<path fill="#FFFFFF" d="M-2463.1,2417.2c4.2,0,2.4,0,5.4,0c3.5,0.1,7.3,0.6,11.1,1.2c3.9,0.7,7.6,1.7,11.2,3.1
				c3.6,1.4,7.1,3.2,10.5,5.2c3.3,2.2,6.3,4.8,9,7.8l-21.9,14.1c-2.6-2.9-5.9-5.2-9.7-6.9c-3.9-1.7-8.4-2.6-13.6-2.8
				c-5.2-0.2-10.1,0.5-14.6,1.9c-4.5,1.6-8.4,3.9-11.8,6.8c-3.4,2.9-6,6.6-8,10.7c-1.9,4.2-3.1,8.7-3.3,13.7
				c-0.2,5.1,0.6,9.7,2.3,14.1c1.6,4.3,4.1,8,7.1,11.2s6.7,5.8,11,7.7c4.3,1.9,8.8,2.9,13.8,3.2c5.7,0.2,10.7-0.6,15.2-2.5
				c4.5-1.9,8.2-4.5,11.1-8l22.4,15.6c-5.6,6.2-12.5,10.7-20.7,13.4c-8.3,2.7-16.8,4-25.4,3.5c-9.9-0.3-18.8-2-27-5
				c-2.5-0.9-4.9-1.9-7.4-3.1c1.9-1.6,3.7-3.4,5.6-5.2l4.1-4.4l-5-3.5l-22.4-15.6l-4-2.7l-3.2,3.6c-0.5,0.6-1,1.1-1.6,1.6l-0.6-1.2
				c-3.1-7.1-4.4-15.1-4.2-23.7c0.2-7.3,1.9-14.3,4.9-21c1.6,1.5,0.9,0.8,2.2,2l3.1,3.4l3.9-2.5l21.9-14.1l5.1-3.3l-4-4.6
				c-2-2.4-4.3-4.5-6.7-6.3c4-2,8.2-3.5,12.5-4.8c6-1.6,12.1-2.6,18.2-2.8C-2465.5,2417.3-2464.4,2417.3-2463.1,2417.2z"/>
			<path fill="#FFFFFF" d="M-2542,2416.5c4.2,0,2.4,0,5.4,0c3.5,0.1,7.3,0.6,11.1,1.2s7.6,1.7,11.2,3.1c3.6,1.4,7.1,3.2,10.5,5.2
				c3.3,2.2,6.3,4.8,9,7.8l-21.9,14.1c-2.6-2.9-5.9-5.2-9.7-6.9c-4-1.7-8.4-2.6-13.6-2.8c-5.2-0.2-10.1,0.5-14.6,1.9
				c-4.5,1.6-8.4,3.9-11.8,6.8c-3.4,2.9-6,6.6-8,10.7c-1.9,4.2-3.1,8.7-3.3,13.7c-0.2,5.1,0.6,9.7,2.3,14.1c1.6,4.3,4.1,8,7.1,11.2
				c3.1,3.2,6.7,5.8,11,7.7c4.3,1.9,8.8,2.9,13.8,3.2c5.7,0.2,10.7-0.6,15.2-2.5c4.5-1.9,8.2-4.5,11.1-8l22.4,15.6
				c-5.6,6.2-12.5,10.7-20.7,13.4s-16.7,4-25.4,3.5c-9.9-0.3-18.8-2-27-5c-8.2-2.9-15.2-7-21-12.1c-1.7-1.5-3.2-3.1-4.8-4.8v-48.6
				h-3.6l0,0h-7.6c0.9-4.2,2.5-8.2,4.4-11.9c3.6-6.8,8.6-12.7,14.8-17.3c6.2-4.6,13.5-8.2,21.9-10.4c6-1.6,12.1-2.6,18.2-2.8
				C-2544.4,2416.5-2543.1,2416.5-2542,2416.5z"/>
			<path fill="#FFFFFF" d="M-2649.9,2417.2c0.5,0,0.9,0,1.4,0c25.5,0,51.1,0,76.6,0c-6.1,2.2-11.9,5.4-17.1,9.2
				c-4.6,3.5-9.1,7.8-12.4,12.7h-45.4c0,0-11.3-0.1-19.8,2.8c-4.5,1.6-8.4,3.5-12.5,7.1c-4.8,3.9-7.5,10.5-7.5,10.5
				c-1.8,4.3-2.7,8.8-2.7,13.8c0,5.1,0.9,9.7,2.7,13.9s4.4,7.9,7.9,11c3.5,3.1,7.5,5.6,12.4,7.3c4.8,1.7,10.1,2.6,16.1,2.6
				c6,0,11.2-0.6,15.6-1.7c3.5-0.9,7.1-2,10.4-3.5v-17.6h-22.6v-19.6h47.1v53.8c-8.2,3.6-14.8,6.5-23.7,8.2
				c-8.8,1.6-17.9,2.4-27.2,2.4c-9.9,0-18.9-1.4-27.2-4s-15.4-6.3-21.4-11.3c-6-4.9-10.7-10.9-14.1-17.9c-3.4-7-5.1-14.8-5.1-23.3
				c0-8.6,1.7-16.4,5.1-23.3c3.4-7,8-13,14.1-17.9c5.6-5.1,12.6-9.1,20.9-11.8c1.2-0.5,1.5-0.6,3.1-0.9
				C-2667.5,2417.6-2657.8,2417.2-2649.9,2417.2z"/>
		</g>
	</g>
</g>
</svg>
