<?xml version="1.0" encoding="utf-8"?>
<!-- Generator: Adobe Illustrator 18.1.1, SVG Export Plug-In . SVG Version: 6.00 Build 0)  -->
<svg version="1.1" id="Layer_1" xmlns="http://www.w3.org/2000/svg" xmlns:xlink="http://www.w3.org/1999/xlink" x="0px" y="0px"
	 width="320px" height="320px" viewBox="-1926 1515.9 320 320" enable-background="new -1926 1515.9 320 320" xml:space="preserve">
<rect x="-1926" y="1515.9" fill="none" width="320" height="320"/>
<g>
	<g>
		<defs>
			<rect id="SVGID_1_" x="-1915.8" y="1537.7" width="300" height="276.5"/>
		</defs>
		<clipPath id="SVGID_2_">
			<use xlink:href="#SVGID_1_"  overflow="visible"/>
		</clipPath>
		<path clip-path="url(#SVGID_2_)" fill="#236735" d="M-1648,1598.6c14.3,19.6,24.2,41.6,28.6,63.7c2.5,11.8,3.2,23.5,2.3,34.7
			c-0.8,12-3.8,23.3-8.4,33.8c-4.6,10.3-10.5,19.3-18.5,27.5c-7.1,7.6-16,14.1-26.5,20.2c-25,14.3-59.7,26.1-93.1,31.7
			c-18.5,3.2-35.7,4.4-51.7,3.6c-17.4-0.8-32.8-4-45.2-9.5c-18.5-8.2-30.7-21-35.9-38.5c-4.6-14.9-4-33,1.5-53.8
			c3.6-14.3,8.8-26.5,14.1-38.7c6.9-15.6,14.3-30.3,21.9-43.5c9.7-16.6,19.8-31.3,30.3-43.5c26.5-31.3,55.1-47.7,85.1-48.8
			c9.5-0.4,21.9,2.1,31.7,6.3c15.8,6.9,43.1,28.6,62.2,52.1L-1648,1598.6z"/>
	</g>
	<g>
		<defs>
			<rect id="SVGID_3_" x="-1915.8" y="1537.7" width="300" height="276.5"/>
		</defs>
		<clipPath id="SVGID_4_">
			<use xlink:href="#SVGID_3_"  overflow="visible"/>
		</clipPath>
		<path clip-path="url(#SVGID_4_)" fill="#A2CE9B" d="M-1715.9,1540.6c-1.7,0-3.4,0-5,0.2c3.2,0.8,6.3,1.9,9,3.2
			c15.8,6.9,43.1,28.6,62.2,52.1l1.7,2.5c14.3,19.6,24.2,41.6,28.6,63.7c2.1,10.7,3.2,21.4,2.5,31.7c1.7-16,1.1-32.8-1.9-49.4
			l-0.4-2.9c-7.1-29.6-22.3-61-33.4-74c-6.9-8.2-17.2-15.8-25.9-19.3C-1690.2,1543.1-1702.6,1540.6-1715.9,1540.6 M-1827.7,1585
			c-10.9,8-22.3,16.8-33.4,26.3c-10.1,8.6-20,17.4-29.4,28.6c-13.9,16.6-22.3,32.8-24.6,48.1c-2.7,17.9,2.7,34.7,15.8,50
			c0.4-8.2,1.9-16.8,4.4-26.1c3.6-14.3,8.8-26.5,14.1-38.7c6.9-15.6,14.3-30.3,21.9-43.5c9.7-16.4,19.8-31.1,30.3-43.3
			C-1828.6,1586-1828.1,1585.6-1827.7,1585 M-1629.3,1738.7c-4,7.1-8.8,13.7-14.7,19.8c-7.1,7.6-16,14.1-26.5,20.2
			c-11.6,6.5-25.4,12.6-40.2,17.9c9.7-1.1,18.3-3.2,26.3-6.1c10.7-4,20-9.5,28.6-16.8c8.8-7.6,16.2-16.6,22.3-26.9
			C-1632,1744.1-1630.5,1741.4-1629.3,1738.7"/>
	</g>
	<g>
		<defs>
			<rect id="SVGID_5_" x="-1915.8" y="1537.7" width="300" height="276.5"/>
		</defs>
		<clipPath id="SVGID_6_">
			<use xlink:href="#SVGID_5_"  overflow="visible"/>
		</clipPath>
		<path clip-path="url(#SVGID_6_)" fill="#308841" d="M-1720.7,1540.8c-17.2,0.8-35.7,5.7-55.7,14.5c-14.7,6.5-30.3,15.3-46,26.3
			c-1.7,1.3-3.4,2.3-5,3.6c-0.4,0.4-0.8,0.8-1.3,1.3c-10.5,12.2-20.6,26.9-30.3,43.5c-7.8,13.2-15.1,28-21.9,43.5
			c-5.3,12.2-10.5,24.4-14.1,38.7c-2.5,9.3-4,17.9-4.4,25.9c0,0,0,0,0.2,0.2c8.8,10.3,21.2,19.8,36.8,28.2
			c13.9,7.6,30.3,13.9,48.1,19.1c27.3,7.8,57.6,12.2,83.5,12.2c5,0,9.7-0.2,14.3-0.4c2.1-0.2,4.2-0.4,6.3-0.6
			c14.7-5.3,28.6-11.4,40.2-17.9c10.5-6.1,19.1-12.6,26.5-20.2c5.9-6.1,10.7-12.6,14.7-19.8c3.6-7.6,6.5-15.8,8.6-24.4
			c1.7-6.5,2.9-13.2,3.6-20.2c0.4-10.3-0.4-21-2.5-31.7c-4.4-22.1-14.3-44.1-28.6-63.7l-1.7-2.5c-19.3-23.8-46.9-45.4-62.4-52.3
			C-1714.6,1542.7-1717.8,1541.7-1720.7,1540.8"/>
	</g>
	<polygon fill="#FFFFFF" points="-1868.9,1647.2 -1835.9,1647.2 -1820.6,1691.8 -1820.4,1691.8 -1805,1647.2 -1772,1647.2 
		-1772,1714.9 -1793.2,1714.9 -1793.2,1664.2 -1793.5,1664.2 -1811.3,1714.9 -1829.8,1714.9 -1847.5,1664.2 -1847.7,1664.2 
		-1847.7,1714.9 -1868.9,1714.9 	"/>
	<g>
		<g>
			<defs>
				<rect id="SVGID_7_" x="-1915.8" y="1537.7" width="300" height="276.5"/>
			</defs>
			<clipPath id="SVGID_8_">
				<use xlink:href="#SVGID_7_"  overflow="visible"/>
			</clipPath>
			<path clip-path="url(#SVGID_8_)" fill="#FFFFFF" d="M-1747.2,1678.3h20c6.3,0,9-2.5,9-8.6c0-5.9-2.7-8.6-9-8.6h-20V1678.3z
				 M-1769.7,1647.2h50c18.3,0,24.8,9.7,24.8,22.5c0,11.1-5.7,22.5-23.8,22.5h-28.6v22.5h-22.5V1647.2z"/>
		</g>
		<g>
			<defs>
				<rect id="SVGID_9_" x="-1915.8" y="1537.7" width="300" height="276.5"/>
			</defs>
			<clipPath id="SVGID_10_">
				<use xlink:href="#SVGID_9_"  overflow="visible"/>
			</clipPath>
			<path clip-path="url(#SVGID_10_)" fill="#FFFFFF" d="M-1674.5,1699.8h18.9c12.8,0,16.4-9.5,16.4-18.7c0-12.6-6.1-18.5-18.1-18.5
				h-17v37.2H-1674.5z M-1697,1647.2h48.8c20.8,0,32.2,11.4,32.2,33.8c0,26.5-15.8,33.8-35.1,33.8h-45.8
				C-1697,1714.9-1697,1647.2-1697,1647.2z"/>
		</g>
		<g>
			<defs>
				<rect id="SVGID_11_" x="-1915.8" y="1537.7" width="300" height="276.5"/>
			</defs>
			<clipPath id="SVGID_12_">
				<use xlink:href="#SVGID_11_"  overflow="visible"/>
			</clipPath>
			<path clip-path="url(#SVGID_12_)" fill="#236735" d="M-1695.7,1675.6c-1.1,0.8-2.9,1.5-4.6,1.5c-3.4,0-5-1.9-5-4
				c0-1.3,1.1-2.9,2.7-3.6L-1695.7,1675.6z M-1679.1,1681.3l-7.1-6.3c1.9-1.9,2.9-3.2,4.4-5.5l-4.2-2.9c-1.3,1.7-2.7,3.6-4.2,4.6
				l-5-4.6c3.2-0.8,5.7-2.5,5.7-5.9c0-3.8-3.6-6.1-9.9-6.1c-5.5,0-9.9,2.1-9.9,6.3c0,2.1,1.5,3.8,2.5,4.6c-4.2,1.1-7.4,3.2-7.4,7.8
				c0,4.4,3.4,8.4,11.4,8.4c4.8,0,8.2-1.3,10.5-2.9l2.3,2.1h10.9V1681.3z M-1701.2,1661.1c0-1.3,1.3-1.9,2.7-1.9
				c1.5,0,2.3,0.8,2.3,1.9s-1.1,2.1-2.9,2.7C-1700.1,1663.2-1701.2,1661.9-1701.2,1661.1"/>
		</g>
	</g>
</g>
</svg>
