<?xml version="1.0" encoding="utf-8"?>
<!-- Generator: Adobe Illustrator 18.1.1, SVG Export Plug-In . SVG Version: 6.00 Build 0)  -->
<svg version="1.1" id="Layer_1" xmlns="http://www.w3.org/2000/svg" xmlns:xlink="http://www.w3.org/1999/xlink" x="0px" y="0px"
	 width="320px" height="320px" viewBox="-1127 714.9 320 320" enable-background="new -1127 714.9 320 320" xml:space="preserve">
<rect x="-1127" y="714.9" fill="none" width="320" height="320"/>
<g>
	<g>
		<g>
			<rect x="-1116" y="789.8" fill="#00B4EF" width="300" height="156.4"/>
		</g>
	</g>
	<g>
		<path fill="#FFFFFF" d="M-948.5,858.2c-4-4-9.2-6.3-15.2-6.3c-13.4,0-23.9,10.3-23.9,23.4c0,13,10.8,23.5,23.9,23.5
			c6.2,0,11.2-2.2,15.3-6.3c0,1.9,0,5.2,0,5.2h8.1V853h-8.2C-948.5,853-948.5,856.2-948.5,858.2z M-963.8,891.3
			c-8.6,0-15.7-7.2-15.7-15.9s7.2-15.9,15.7-15.9s15.3,7.1,15.3,16C-948.5,884.3-955.3,891.3-963.8,891.3z"/>
		<path fill="#FFFFFF" d="M-1013.6,852c-4.2,0-8.3,1.6-11.5,4.2c0-4.8,0-18,0-18h-8.1v59.6h8.1v-24.5c0-3.7,0.3-5.9,1.1-7.5
			c1.6-3.7,6-6.3,10.4-6.3c7.1,0,11.9,5.5,11.9,13.7v24.6h8.1v-24.5C-993.5,860.5-1001.6,852-1013.6,852z"/>
		<path fill="#FFFFFF" d="M-1045.4,867.3c-2.9-2.3-4-2.7-11.2-4.8c-8.6-2.3-10.1-4.8-10.1-8.9c0-4.8,3.7-8.6,8.5-8.6
			c4.9,0,8.5,3.6,8.9,9l0.1,1.2h8.5v-1.4c0-9.6-7.4-16.7-17.1-16.7c-9.8,0-17.4,7.1-17.4,16.7c0,4.4,1.5,8.3,4.4,11.1
			c2.5,2.6,4.9,3.7,11.2,5.3c4.5,1.1,6.4,1.9,8.3,3.6c2.2,1.8,3.4,4.4,3.4,7.1c0,5.5-4.6,10.1-10.3,10.1c-2.3,0-5.1-1.1-6.8-2.6
			c-2.1-1.9-3-4.1-3.4-7.9l-0.1-1.2h-8.8v1.4c0.4,10.7,8.3,18.2,19,18.2c10.3,0,18.7-8.1,18.7-18
			C-1039.3,875.7-1041.6,870.6-1045.4,867.3z"/>
		<g>
			<rect x="-863.4" y="838.2" fill="#FFFFFF" width="8.5" height="41.2"/>
			<rect x="-863.4" y="885.4" fill="#FFFFFF" width="8.5" height="12.4"/>
		</g>
		<path fill="#FFFFFF" d="M-869.9,853h-10.3c0,0-13.9,18.2-17.8,23c0-6.6,0-37.7,0-37.7h-8.1v59.6h8.1c0,0,0-8.1,0-8.9
			c0.4-0.5,4-5.1,5.3-6.8c1.9,2.1,13.1,15.7,13.1,15.7h10.5c0,0-17.2-20.6-18.6-22.2C-886.3,874-869.9,853-869.9,853z"/>
		<path fill="#FFFFFF" d="M-924.8,856.1c0-0.7,0-3.1,0-3.1h-8.1v44.8h8.5V872c0-4.2,1-6.4,3.8-8.9c2.1-1.6,3.6-2.3,6.8-2.7l1.2-0.1
			v-8.3l-1.5,0.1C-919.1,852.3-922.4,853.5-924.8,856.1z"/>
	</g>
	<polygon fill="#00B4EF" points="-1033.7,991.3 -1033.7,935.1 -1086.6,935.1 	"/>
</g>
</svg>
