<?xml version="1.0" encoding="utf-8"?>
<!-- Generator: Adobe Illustrator 18.1.1, SVG Export Plug-In . SVG Version: 6.00 Build 0)  -->
<svg version="1.1" id="Layer_1" xmlns="http://www.w3.org/2000/svg" xmlns:xlink="http://www.w3.org/1999/xlink" x="0px" y="0px"
	 width="341px" height="320px" viewBox="-1137 714.9 341 320" enable-background="new -1137 714.9 341 320" xml:space="preserve">
<g>
	<rect x="-1137" y="714.9" fill="none" width="340" height="320"/>
	<g>
		<g>
			<g>
				<rect x="-1136" y="776.4" fill="#00B4EF" width="340" height="177.3"/>
			</g>
		</g>
		<g>
			<path fill="#FFFFFF" d="M-946.2,853.8c-4.5-4.5-10.4-7.1-17.2-7.1c-15.2,0-27.1,11.6-27.1,26.5c0,14.7,12.2,26.7,27.1,26.7
				c7,0,12.7-2.5,17.4-7.1c0,2.2,0,5.9,0,5.9h9.1V848h-9.3C-946.2,848-946.2,851.7-946.2,853.8z M-963.5,891.3
				c-9.8,0-17.8-8.2-17.8-18c0-9.8,8.2-18,17.8-18s17.4,8.1,17.4,18.1C-946.2,883.4-953.9,891.3-963.5,891.3z"/>
			<path fill="#FFFFFF" d="M-1019.9,846.9c-4.8,0-9.5,1.9-13,4.8c0-5.4,0-20.5,0-20.5h-9.1v67.6h9.1V871c0-4.2,0.3-6.7,1.2-8.5
				c1.9-4.2,6.8-7.1,11.8-7.1c8.1,0,13.5,6.2,13.5,15.5v27.9h9.1V871C-997.1,856.5-1006.3,846.9-1019.9,846.9z"/>
			<path fill="#FFFFFF" d="M-1056,864.2c-3.3-2.6-4.5-3.1-12.7-5.4c-9.8-2.6-11.5-5.4-11.5-10.1c0-5.4,4.2-9.8,9.6-9.8
				c5.6,0,9.6,4,10.1,10.2l0.2,1.4h9.6V849c0-10.8-8.4-18.9-19.4-18.9c-11.2,0-19.7,8.1-19.7,18.9c0,5,1.7,9.5,5,12.6
				c2.8,2.9,5.6,4.2,12.7,6c5.1,1.2,7.3,2.2,9.5,4c2.5,2,3.9,5,3.9,8.1c0,6.2-5.3,11.5-11.6,11.5c-2.6,0-5.7-1.2-7.7-2.9
				c-2.3-2.2-3.4-4.6-3.9-9l-0.2-1.4h-9.9v1.5c0.5,12.1,9.5,20.6,21.5,20.6c11.6,0,21.2-9.1,21.2-20.5
				C-1049.1,873.7-1051.7,867.9-1056,864.2z"/>
			<g>
				<rect x="-849.8" y="831.2" fill="#FFFFFF" width="9.6" height="46.6"/>
				<rect x="-849.8" y="884.7" fill="#FFFFFF" width="9.6" height="14.1"/>
			</g>
			<path fill="#FFFFFF" d="M-857.1,848h-11.6c0,0-15.8,20.6-20.1,26c0-7.4,0-42.8,0-42.8h-9.1v67.6h9.1c0,0,0-9.1,0-10.1
				c0.5-0.6,4.5-5.7,6-7.7c2.2,2.3,14.9,17.8,14.9,17.8h11.9c0,0-19.5-23.4-21.1-25.1C-875.7,871.8-857.1,848-857.1,848z"/>
			<path fill="#FFFFFF" d="M-919.4,851.5c0-0.8,0-3.6,0-3.6h-9.1v50.8h9.6v-29.3c0-4.8,1.1-7.3,4.3-10.1c2.3-1.9,4-2.6,7.7-3.1
				l1.4-0.2v-9.5l-1.7,0.2C-912.8,847.2-916.6,848.6-919.4,851.5z"/>
		</g>
		<polygon fill="#00B4EF" points="-1042.7,1004.8 -1042.7,941.1 -1102.7,941.1 		"/>
	</g>
</g>
</svg>
