<?xml version="1.0" encoding="utf-8"?>
<!-- Generator: Adobe Illustrator 18.1.0, SVG Export Plug-In . SVG Version: 6.00 Build 0)  -->
<svg version="1.1" id="Layer_1" xmlns="http://www.w3.org/2000/svg" xmlns:xlink="http://www.w3.org/1999/xlink" x="0px" y="0px"
	 viewBox="0 0 219.4 147.4" enable-background="new 0 0 219.4 147.4" xml:space="preserve">
<g>
	<g>
		<g>
			<rect x="0" y="0" fill="#00B4EF" width="219.4" height="114.4"/>
		</g>
	</g>
	<g>
		<path fill="#FFFFFF" d="M122.5,50c-2.9-2.9-6.7-4.6-11.1-4.6c-9.8,0-17.5,7.5-17.5,17.1c0,9.5,7.9,17.2,17.5,17.2
			c4.5,0,8.2-1.6,11.2-4.6c0,1.4,0,3.8,0,3.8l5.9,0V46.2h-6C122.5,46.2,122.5,48.6,122.5,50z M111.3,74.2c-6.3,0-11.5-5.3-11.5-11.6
			c0-6.3,5.3-11.6,11.5-11.6c6.2,0,11.2,5.2,11.2,11.7C122.5,69.1,117.5,74.2,111.3,74.2z"/>
		<path fill="#FFFFFF" d="M74.9,45.5c-3.1,0-6.1,1.2-8.4,3.1c0-3.5,0-13.2,0-13.2l-5.9,0V79h5.9V61.1c0-2.7,0.2-4.3,0.8-5.5
			c1.2-2.7,4.4-4.6,7.6-4.6c5.2,0,8.7,4,8.7,10V79h5.9V61.1C89.6,51.7,83.7,45.5,74.9,45.5z"/>
		<path fill="#FFFFFF" d="M51.6,56.7c-2.1-1.7-2.9-2-8.2-3.5c-6.3-1.7-7.4-3.5-7.4-6.5c0-3.5,2.7-6.3,6.2-6.3c3.6,0,6.2,2.6,6.5,6.6
			l0.1,0.9l6.2,0v-1c0-7-5.4-12.2-12.5-12.2c-7.2,0-12.7,5.2-12.7,12.2c0,3.2,1.1,6.1,3.2,8.1c1.8,1.9,3.6,2.7,8.2,3.9
			c3.3,0.8,4.7,1.4,6.1,2.6c1.6,1.3,2.5,3.2,2.5,5.2c0,4-3.4,7.4-7.5,7.4c-1.7,0-3.7-0.8-5-1.9c-1.5-1.4-2.2-3-2.5-5.8l-0.1-0.9
			l-6.4,0l0,1c0.3,7.8,6.1,13.3,13.9,13.3c7.5,0,13.7-5.9,13.7-13.2C56.1,62.8,54.4,59.1,51.6,56.7z"/>
		<g>
			<rect x="184.7" y="35.4" fill="#FFFFFF" width="6.2" height="30.1"/>
			<rect x="184.7" y="69.9" fill="#FFFFFF" width="6.2" height="9.1"/>
		</g>
		<path fill="#FFFFFF" d="M180,46.2l-7.5,0c0,0-10.2,13.3-13,16.8c0-4.8,0-27.6,0-27.6l-5.9,0V79l5.9,0c0,0,0-5.9,0-6.5
			c0.3-0.4,2.9-3.7,3.9-5C164.8,69,173,79,173,79l7.7,0c0,0-12.6-15.1-13.6-16.2C168,61.6,180,46.2,180,46.2z"/>
		<path fill="#FFFFFF" d="M139.8,48.5c0-0.5,0-2.3,0-2.3l-5.9,0V79l6.2,0V60.1c0-3.1,0.7-4.7,2.8-6.5c1.5-1.2,2.6-1.7,5-2l0.9-0.1
			v-6.1l-1.1,0.1C144,45.7,141.6,46.6,139.8,48.5z"/>
	</g>
	<polygon fill="#00B4EF" points="60.2,147.4 60.2,106.3 21.5,106.3 	"/>
</g>
</svg>
