<?xml version="1.0" encoding="utf-8"?>
<!-- Generator: Adobe Illustrator 18.1.1, SVG Export Plug-In . SVG Version: 6.00 Build 0)  -->
<svg version="1.1" id="Layer_1" xmlns="http://www.w3.org/2000/svg" xmlns:xlink="http://www.w3.org/1999/xlink" x="0px" y="0px"
	 width="320px" height="320px" viewBox="-1127 714.9 320 320" enable-background="new -1127 714.9 320 320" xml:space="preserve">
<rect x="-1127" y="714.9" fill="none" width="320" height="320"/>
<g>
	<g>
		<g>
			<defs>
				<rect id="SVGID_1_" x="-1118" y="734" width="300" height="276.6"/>
			</defs>
			<clipPath id="SVGID_2_">
				<use xlink:href="#SVGID_1_"  overflow="visible"/>
			</clipPath>
			<path clip-path="url(#SVGID_2_)" fill="#263C91" d="M-850.1,795c14.2,19.5,24.1,41.5,28.6,63.6c2.4,11.9,3.2,23.6,2.4,34.7
				c-0.9,12-3.8,23.4-8.3,33.9c-4.6,10.4-10.6,19.4-18.4,27.5c-7.2,7.5-15.9,14.1-26.4,20.2c-24.9,14.2-59.8,26.1-93.3,31.7
				c-18.4,3.1-35.8,4.3-51.7,3.6c-17.5-0.8-32.7-4-45.3-9.5c-18.6-8.1-30.7-21.1-36-38.4c-4.6-14.9-4.1-33.1,1.4-54
				c3.7-14.2,8.8-26.4,14.1-38.6c6.8-15.6,14.2-30.3,21.9-43.5c9.6-16.6,19.7-31.3,30.2-43.5c26.6-31.2,55.2-47.6,85.2-48.7
				c9.5-0.5,22,2,31.8,6.3c15.7,6.9,43,28.5,62.2,52.3L-850.1,795z"/>
		</g>
	</g>
	<g>
		<g>
			<defs>
				<rect id="SVGID_3_" x="-1118" y="734" width="300" height="276.6"/>
			</defs>
			<clipPath id="SVGID_4_">
				<use xlink:href="#SVGID_3_"  overflow="visible"/>
			</clipPath>
			<path clip-path="url(#SVGID_4_)" fill="#A2CE9B" d="M-1029.9,781.4c-11.1,7.8-22.3,16.7-33.4,26.3c-10.1,8.7-20,17.4-29.4,28.7
				c-14,16.5-22.3,32.6-24.6,48.1c-0.4,2.9-0.7,5.8-0.7,8.7v0.5c0.1,14.4,5.6,28.2,16.5,40.9c0.4-6.6,1.4-13.5,3.1-20.9
				c0,0,0,0,0-0.1v-0.1c0.4-1.7,0.8-3.3,1.2-5c0.9-3.6,1.9-7,3-10.4c3.2-10,7.1-19.1,11.1-28.3c6.8-15.6,14.2-30.3,21.9-43.5
				c0.1-0.1,0.1-0.3,0.3-0.4c9.5-16.5,19.6-31,29.9-43.2c0.3-0.4,0.7-0.8,1-1.1C-1030,781.5-1029.9,781.5-1029.9,781.4"/>
		</g>
	</g>
	<g>
		<g>
			<defs>
				<rect id="SVGID_5_" x="-1118" y="734" width="300" height="276.6"/>
			</defs>
			<clipPath id="SVGID_6_">
				<use xlink:href="#SVGID_5_"  overflow="visible"/>
			</clipPath>
			<path clip-path="url(#SVGID_6_)" fill="#237780" d="M-1030,781.6c-0.3,0.4-0.7,0.8-1,1.1C-1030.7,782.3-1030.3,782-1030,781.6
				 M-1031,782.7c-10.4,12.2-20.4,26.7-29.9,43.2C-1051.4,809.4-1041.4,794.9-1031,782.7 M-1094.2,898.1c-1.1,3.3-2.1,6.7-3,10.4
				c-0.4,1.7-0.8,3.4-1.2,5c0.4-1.7,0.8-3.3,1.2-5C-1096.3,904.8-1095.3,901.4-1094.2,898.1 M-1098.5,913.5L-1098.5,913.5
				L-1098.5,913.5"/>
		</g>
		<g>
			<defs>
				<rect id="SVGID_7_" x="-1118" y="734" width="300" height="276.6"/>
			</defs>
			<clipPath id="SVGID_8_">
				<use xlink:href="#SVGID_7_"  overflow="visible"/>
			</clipPath>
			<path clip-path="url(#SVGID_8_)" fill="#229CD3" d="M-918,737c-1.7,0-3.3,0.1-5,0.1c3.1,0.9,6.1,2,8.9,3.2
				c15.7,6.9,43,28.5,62.2,52.3l1.7,2.5c14.2,19.5,24.1,41.5,28.6,63.6c2.2,10.8,3.1,21.5,2.5,31.7c1.8-16.1,1.1-32.9-1.9-49.5
				l-0.4-2.9c-7.1-29.7-22.4-61-33.6-74c-7-8.1-17.2-15.8-26-19.5C-892.3,739.5-904.7,737-918,737"/>
		</g>
	</g>
	<g>
		<defs>
			<rect id="SVGID_9_" x="-1118" y="734" width="300" height="276.6"/>
		</defs>
		<clipPath id="SVGID_10_">
			<use xlink:href="#SVGID_9_"  overflow="visible"/>
		</clipPath>
		<path clip-path="url(#SVGID_10_)" fill="#A2CE9B" d="M-831.4,935c-1.2,2.2-2.5,4.3-3.9,6.4c0,0,0,0.1-0.1,0.1l0,0
			c-3.1,4.7-6.7,9.1-10.7,13.2l-0.1,0.1c-7.2,7.4-15.8,14-26.2,20c-0.1,0.1-0.2,0.1-0.3,0.1c-11.6,6.6-25.4,12.7-40.1,17.9
			c9.6-1.1,18.2-3.2,26.3-6.2c10.6-3.9,20-9.5,28.5-16.8c8.7-7.5,16.2-16.6,22.2-27C-834,940.4-832.6,937.7-831.4,935"/>
	</g>
	<g>
		<defs>
			<rect id="SVGID_11_" x="-1118" y="734" width="300" height="276.6"/>
		</defs>
		<clipPath id="SVGID_12_">
			<use xlink:href="#SVGID_11_"  overflow="visible"/>
		</clipPath>
		<path clip-path="url(#SVGID_12_)" fill="#237780" d="M-835.2,941.5C-835.2,941.5-835.2,941.5-835.2,941.5
			C-835.2,941.5-835.2,941.5-835.2,941.5 M-835.3,941.5c-3.1,4.7-6.7,9.1-10.7,13.2C-841.9,950.6-838.3,946.2-835.3,941.5
			 M-872.2,974.8c-0.1,0.1-0.2,0.1-0.3,0.1C-872.4,975-872.2,974.9-872.2,974.8"/>
	</g>
	<g>
		<defs>
			<rect id="SVGID_13_" x="-1118" y="734" width="300" height="276.6"/>
		</defs>
		<clipPath id="SVGID_14_">
			<use xlink:href="#SVGID_13_"  overflow="visible"/>
		</clipPath>
		<path clip-path="url(#SVGID_14_)" fill="#216298" d="M-923,737.1c-17.2,0.8-35.9,5.6-55.8,14.5c-14.7,6.5-30.2,15.3-46,26.1
			c-1.7,1.1-3.4,2.4-5.1,3.6c-0.4,0.4-0.8,0.9-1.1,1.3c-10.4,12.3-20.6,26.9-30.2,43.5c-7.7,13.4-15.1,28-21.9,43.5
			c-5.3,12.2-10.5,24.3-14.1,38.6c-2.4,9.2-3.9,17.9-4.3,26l0.1,0.1c8.9,10.4,21.3,19.8,36.7,28.2c14,7.5,30.2,14,48.1,19.1
			c27.4,7.8,57.5,12.2,83.4,12.2c5,0,9.8-0.1,14.4-0.5c2.1-0.1,4.2-0.4,6.2-0.6c14.7-5.2,28.5-11.3,40.1-17.9
			c10.6-6,19.1-12.7,26.4-20.2c5.8-6,10.7-12.6,14.7-19.8c3.6-7.6,6.5-15.8,8.7-24.4c1.7-6.5,2.9-13.4,3.6-20.2
			c0.5-10.2-0.3-20.9-2.5-31.7c-4.5-22.1-14.4-44.1-28.6-63.6l-1.7-2.5c-19.2-23.7-46.6-45.4-62.2-52.3
			C-916.9,739.1-919.8,738-923,737.1"/>
	</g>
	<polygon fill="#FFFFFF" points="-1058.9,821.8 -1022.4,821.8 -1010.1,880.2 -1009.8,880.2 -995.7,821.8 -965.6,821.8 -951.6,880.2 
		-951.4,880.2 -939,821.8 -902.4,821.8 -930.5,917.5 -967.6,917.5 -980.6,864.4 -980.9,864.4 -994,917.5 -1031.1,917.5 	"/>
	<polygon fill="#FFFFFF" points="-919.5,821.7 -881.7,821.7 -881.7,891.6 -823.1,891.6 -823.1,917.4 -919.5,917.4 	"/>
	<g>
		<g>
			<defs>
				<rect id="SVGID_15_" x="-1118" y="734" width="300" height="276.6"/>
			</defs>
			<clipPath id="SVGID_16_">
				<use xlink:href="#SVGID_15_"  overflow="visible"/>
			</clipPath>
			<path clip-path="url(#SVGID_16_)" fill="#FFFFFF" d="M-1016.3,928.4c-5.1,0-7.1,2.5-7.1,5.3c0,2.9,1.9,5.4,7.1,5.4
				c5.3,0,7.1-2.5,7.1-5.4C-1009.2,930.9-1011.1,928.4-1016.3,928.4 M-1009.2,943.6c-2.5,2.2-6.4,2.9-10.7,2.9
				c-10.6,0-16.4-4.6-16.4-13c0-8.5,7.2-13,16.4-13c5,0,8.6,1.4,11.1,3.8v-3.1h12v25c0,8.6-6.5,12-18.9,12
				c-13.5,0-18.4-2.7-19.6-9.5h13.7c0.2,0.9,0.6,1.5,1.5,2s2.2,0.7,4.1,0.7c5,0,6.8-1.8,6.8-5.5V943.6z"/>
		</g>
		<g>
			<defs>
				<rect id="SVGID_17_" x="-1118" y="734" width="300" height="276.6"/>
			</defs>
			<clipPath id="SVGID_18_">
				<use xlink:href="#SVGID_17_"  overflow="visible"/>
			</clipPath>
			<path clip-path="url(#SVGID_18_)" fill="#FFFFFF" d="M-990.9,921.1h12v5.2h0.1c3.2-4.2,7.2-5.9,11.5-5.9c1.3,0,2.7,0.1,4.1,0.3
				v11.1c-2.2-0.6-4-1-6.2-1c-4.4,0-9.1,1.5-9.1,7.2v10.2h-12.4V921.1z"/>
		</g>
		<g>
			<defs>
				<rect id="SVGID_19_" x="-1118" y="734" width="300" height="276.6"/>
			</defs>
			<clipPath id="SVGID_20_">
				<use xlink:href="#SVGID_19_"  overflow="visible"/>
			</clipPath>
			<path clip-path="url(#SVGID_20_)" fill="#FFFFFF" d="M-941.2,941.3c5,0,7.1-2.3,7.1-6.6c0-4.3-2.1-6.6-7.1-6.6s-7.1,2.4-7.1,6.6
				C-948.3,939-946.2,941.3-941.2,941.3 M-941.2,920c14,0,20,4.6,20,14.6c0,10-6.1,14.6-20,14.6c-14,0-20-4.6-20-14.6
				C-961.2,924.7-955.2,920-941.2,920"/>
		</g>
		<g>
			<defs>
				<rect id="SVGID_21_" x="-1118" y="734" width="300" height="276.6"/>
			</defs>
			<clipPath id="SVGID_22_">
				<use xlink:href="#SVGID_21_"  overflow="visible"/>
			</clipPath>
			<path clip-path="url(#SVGID_22_)" fill="#FFFFFF" d="M-881.5,948.2h-12v-3h-0.1c-1.3,1.7-5.2,4.1-11.2,4.1c-6.8,0-12-3.1-12-10.6
				v-17.5h12.4v14.3c0,3.4,1.8,4.9,4.8,4.9c3.9,0,5.7-2.4,5.7-6.5v-12.8h12.3V948.2z"/>
		</g>
		<g>
			<defs>
				<rect id="SVGID_23_" x="-1118" y="734" width="300" height="276.6"/>
			</defs>
			<clipPath id="SVGID_24_">
				<use xlink:href="#SVGID_23_"  overflow="visible"/>
			</clipPath>
			<path clip-path="url(#SVGID_24_)" fill="#FFFFFF" d="M-856.3,941c4.5,0,6.7-2.7,6.7-6.2c0-3.6-2-6.2-6.8-6.2
				c-4.8,0-6.8,2.3-6.8,6.2C-863.2,938.7-861.2,941-856.3,941 M-875.5,921.1h12v3.2h0.1c2.2-2.5,5.7-3.9,11.1-3.9
				c8,0,15.4,4.4,15.4,14.4s-7.4,14.4-15.4,14.4c-5,0-8.6-1.2-10.7-3.8h-0.1v12.4h-12.4L-875.5,921.1L-875.5,921.1z"/>
		</g>
		<g>
			<defs>
				<rect id="SVGID_25_" x="-1118" y="734" width="300" height="276.6"/>
			</defs>
			<clipPath id="SVGID_26_">
				<use xlink:href="#SVGID_25_"  overflow="visible"/>
			</clipPath>
			<path clip-path="url(#SVGID_26_)" fill="#216298" d="M-910.2,864.7c-1.5,1.1-4,2-6.3,2c-4.7,0-7.1-2.7-7.1-5.6
				c0-1.8,1.4-4.1,3.9-5L-910.2,864.7z M-887.5,872.6l-9.7-8.6c2.7-2.5,4.1-4.3,6-7.4l-5.7-3.9c-1.7,2.3-3.9,5-5.8,6.4l-6.9-6.3
				c4.4-1.2,7.9-3.5,7.9-7.9c0-5.3-5-8.3-13.5-8.3c-7.4,0-13.4,2.7-13.4,8.8c0,3,2,5.1,3.6,6.4c-5.8,1.3-10.2,4.3-10.2,10.6
				c0,6,4.6,11.4,15.6,11.4c6.7,0,11.2-1.8,14.5-4.1l3.2,2.9H-887.5L-887.5,872.6z M-917.8,844.8c0-1.8,1.6-2.5,3.7-2.5
				c2,0,3.3,1.1,3.3,2.7c0,1.5-1.3,2.8-4,3.8C-916.2,847.6-917.8,846-917.8,844.8"/>
		</g>
	</g>
</g>
</svg>
